0
SECTION
2
HEADER
9
$ACADVER
1
AC1006
9
$INSBASE
10
0.0
20
0.0
30
0.0
9
$EXTMIN
10
0.0
20
0.0
9
$EXTMAX
10
0.0
20
0.0
0
ENDSEC
0
SECTION
2
TABLES
0
TABLE
2
LTYPE
70
1
0
LTYPE
2
CONTINUOUS
70
64
3
Solid line
72
65
73
0
40
0.0
0
ENDTAB
0
TABLE
2
LAYER
70
1
0
LAYER
2
PYDXF
70
64
62
7
6
continuous
0
ENDTAB
0
TABLE
2
STYLE
70
1
0
STYLE
2
STANDARD
70
0
40
0
41
40
50
50
71
0
42
1
3
ARIAL.TTF
4

0
ENDTAB
0
TABLE
2
VIEW
70
0
0
ENDTAB
0
ENDSEC
0
SECTION
2
BLOCKS
0
ENDSEC
0
SECTION
2
ENTITIES
0
LINE
8
0
10
0
20
0
30
0
11
0.125
21
0.0
31
25.0
0
LINE
8
0
10
0.125
20
0.0
30
25.0
11
0.23828847338
21
0.0528272827176
31
25.0
0
LINE
8
0
10
0.125
20
0.0
30
0
11
0.25
21
0.0
31
335.0
0
LINE
8
0
10
0.25
20
0.0
30
335.0
11
0.36328847338
21
-0.0528272827176
31
335.0
0
LINE
8
0
10
0.25
20
0.0
30
0
11
0.375
21
0.0
31
25.0
0
LINE
8
0
10
0.375
20
0.0
30
25.0
11
0.48828847338
21
0.0528272827176
31
50.0
0
LINE
8
0
10
0.48828847338
20
0.0528272827176
30
50.0
11
0.56863692459
21
0.148582838107
31
50.0
0
LINE
8
0
10
0.48828847338
20
0.0528272827176
30
25.0
11
0.601576946759
21
0.105654565435
31
0.0
0
LINE
8
0
10
0.601576946759
20
0.105654565435
30
0.0
11
0.726576946759
21
0.105654565435
31
0.0
0
LINE
8
0
10
0.601576946759
20
0.105654565435
30
25.0
11
0.714865420139
21
0.158481848153
31
25.0
0
LINE
8
0
10
0.375
20
0.0
30
0
11
0.5
21
0.0
31
25.0
0
LINE
8
0
10
0.5
20
0.0
30
25.0
11
0.61328847338
21
0.0528272827176
31
25.0
0
LINE
8
0
10
0.5
20
0.0
30
0
11
0.625
21
0.0
31
335.0
0
LINE
8
0
10
0.625
20
0.0
30
335.0
11
0.73828847338
21
-0.0528272827176
31
335.0
0
LINE
8
0
10
0.625
20
0.0
30
0
11
0.75
21
0.0
31
335.0
0
LINE
8
0
10
0.75
20
0.0
30
335.0
11
0.86328847338
21
-0.0528272827176
31
0.0
0
LINE
8
0
10
0.86328847338
20
-0.0528272827176
30
0.0
11
0.98828847338
21
-0.0528272827176
31
0.0
0
LINE
8
0
10
0.86328847338
20
-0.0528272827176
30
335.0
11
0.976576946759
21
-0.105654565435
31
310.0
0
LINE
8
0
10
0.976576946759
20
-0.105654565435
30
310.0
11
1.05692539797
21
-0.201410120825
31
310.0
0
LINE
8
0
10
0.976576946759
20
-0.105654565435
30
335.0
11
1.08986542014
21
-0.158481848153
31
335.0
0
LINE
8
0
10
0.75
20
0.0
30
0
11
0.875
21
0.0
31
25.0
0
LINE
8
0
10
0.875
20
0.0
30
25.0
11
0.98828847338
21
0.0528272827176
31
25.0
0
LINE
8
0
10
0.875
20
0.0
30
0
11
1.0
21
0.0
31
335.0
0
LINE
8
0
10
1.0
20
0.0
30
335.0
11
1.11328847338
21
-0.0528272827176
31
335.0
0
LINE
8
0
10
1.0
20
0.0
30
0
11
1.125
21
0.0
31
25.0
0
LINE
8
0
10
1.125
20
0.0
30
25.0
11
1.23828847338
21
0.0528272827176
31
50.0
0
LINE
8
0
10
1.23828847338
20
0.0528272827176
30
50.0
11
1.31863692459
21
0.148582838107
31
50.0
0
LINE
8
0
10
1.23828847338
20
0.0528272827176
30
25.0
11
1.35157694676
21
0.105654565435
31
0.0
0
LINE
8
0
10
1.35157694676
20
0.105654565435
30
0.0
11
1.47657694676
21
0.105654565435
31
0.0
0
LINE
8
0
10
1.35157694676
20
0.105654565435
30
25.0
11
1.46486542014
21
0.158481848153
31
50.0
0
LINE
8
0
10
1.46486542014
20
0.158481848153
30
50.0
11
1.54521387135
21
0.254237403543
31
75.0
0
LINE
8
0
10
1.54521387135
20
0.254237403543
30
75.0
11
1.57756625199
21
0.374978131829
31
75.0
0
LINE
8
0
10
1.54521387135
20
0.254237403543
30
50.0
11
1.62556232256
21
0.349992958933
31
25.0
0
LINE
8
0
10
1.62556232256
20
0.349992958933
30
25.0
11
1.73885079594
21
0.40282024165
31
25.0
0
LINE
8
0
10
1.62556232256
20
0.349992958933
30
50.0
11
1.70591077377
21
0.445748514322
31
50.0
0
LINE
8
0
10
1.46486542014
20
0.158481848153
30
25.0
11
1.57815389352
21
0.21130913087
31
50.0
0
LINE
8
0
10
1.57815389352
20
0.21130913087
30
50.0
11
1.65850234473
21
0.30706468626
31
50.0
0
LINE
8
0
10
1.57815389352
20
0.21130913087
30
25.0
11
1.6914423669
21
0.264136413588
31
0.0
0
LINE
8
0
10
1.6914423669
20
0.264136413588
30
0.0
11
1.8164423669
21
0.264136413588
31
0.0
0
LINE
8
0
10
1.6914423669
20
0.264136413588
30
25.0
11
1.80473084028
21
0.316963696306
31
0.0
0
LINE
8
0
10
1.80473084028
20
0.316963696306
30
0.0
11
1.92973084028
21
0.316963696306
31
25.0
0
LINE
8
0
10
1.92973084028
20
0.316963696306
30
25.0
11
2.04301931366
21
0.369790979023
31
25.0
0
LINE
8
0
10
1.92973084028
20
0.316963696306
30
0.0
11
2.05473084028
21
0.316963696306
31
335.0
0
LINE
8
0
10
2.05473084028
20
0.316963696306
30
335.0
11
2.16801931366
21
0.264136413588
31
335.0
0
LINE
8
0
10
2.05473084028
20
0.316963696306
30
0.0
11
2.17973084028
21
0.316963696306
31
0.0
0
LINE
8
0
10
1.80473084028
20
0.316963696306
30
25.0
11
1.91801931366
21
0.369790979023
31
50.0
0
LINE
8
0
10
1.91801931366
20
0.369790979023
30
50.0
11
1.99836776487
21
0.465546534413
31
50.0
0
LINE
8
0
10
1.91801931366
20
0.369790979023
30
25.0
11
2.03130778704
21
0.422618261741
31
0.0
0
LINE
8
0
10
2.03130778704
20
0.422618261741
30
0.0
11
2.15630778704
21
0.422618261741
31
0.0
0
LINE
8
0
10
2.03130778704
20
0.422618261741
30
25.0
11
2.14459626042
21
0.475445544458
31
25.0
0
LINE
8
0
10
1.125
20
0.0
30
0
11
1.25
21
0.0
31
25.0
0
LINE
8
0
10
1.25
20
0.0
30
25.0
11
1.36328847338
21
0.0528272827176
31
25.0
0
LINE
8
0
10
1.25
20
0.0
30
0
11
1.375
21
0.0
31
335.0
0
LINE
8
0
10
1.375
20
0.0
30
335.0
11
1.48828847338
21
-0.0528272827176
31
335.0
0
LINE
8
0
10
1.375
20
0.0
30
0
11
1.5
21
0.0
31
25.0
0
LINE
8
0
10
1.5
20
0.0
30
25.0
11
1.61328847338
21
0.0528272827176
31
50.0
0
LINE
8
0
10
1.61328847338
20
0.0528272827176
30
50.0
11
1.69363692459
21
0.148582838107
31
50.0
0
LINE
8
0
10
1.61328847338
20
0.0528272827176
30
25.0
11
1.72657694676
21
0.105654565435
31
0.0
0
LINE
8
0
10
1.72657694676
20
0.105654565435
30
0.0
11
1.85157694676
21
0.105654565435
31
0.0
0
LINE
8
0
10
1.72657694676
20
0.105654565435
30
25.0
11
1.83986542014
21
0.158481848153
31
25.0
0
LINE
8
0
10
1.5
20
0.0
30
0
11
1.625
21
0.0
31
25.0
0
LINE
8
0
10
1.625
20
0.0
30
25.0
11
1.73828847338
21
0.0528272827176
31
25.0
0
LINE
8
0
10
1.625
20
0.0
30
0
11
1.75
21
0.0
31
335.0
0
LINE
8
0
10
1.75
20
0.0
30
335.0
11
1.86328847338
21
-0.0528272827176
31
335.0
0
LINE
8
0
10
1.75
20
0.0
30
0
11
1.875
21
0.0
31
335.0
0
LINE
8
0
10
1.875
20
0.0
30
335.0
11
1.98828847338
21
-0.0528272827176
31
0.0
0
LINE
8
0
10
1.98828847338
20
-0.0528272827176
30
0.0
11
2.11328847338
21
-0.0528272827176
31
0.0
0
LINE
8
0
10
1.98828847338
20
-0.0528272827176
30
335.0
11
2.10157694676
21
-0.105654565435
31
310.0
0
LINE
8
0
10
2.10157694676
20
-0.105654565435
30
310.0
11
2.18192539797
21
-0.201410120825
31
310.0
0
LINE
8
0
10
2.10157694676
20
-0.105654565435
30
335.0
11
2.21486542014
21
-0.158481848153
31
335.0
0
LINE
8
0
10
1.875
20
0.0
30
0
11
2.0
21
0.0
31
25.0
0
LINE
8
0
10
2.0
20
0.0
30
25.0
11
2.11328847338
21
0.0528272827176
31
25.0
0
LINE
8
0
10
2.0
20
0.0
30
0
11
2.125
21
0.0
31
335.0
0
LINE
8
0
10
2.125
20
0.0
30
335.0
11
2.23828847338
21
-0.0528272827176
31
335.0
0
LINE
8
0
10
2.125
20
0.0
30
0
11
2.25
21
0.0
31
335.0
0
LINE
8
0
10
2.25
20
0.0
30
335.0
11
2.36328847338
21
-0.0528272827176
31
0.0
0
LINE
8
0
10
2.36328847338
20
-0.0528272827176
30
0.0
11
2.48828847338
21
-0.0528272827176
31
0.0
0
LINE
8
0
10
2.36328847338
20
-0.0528272827176
30
335.0
11
2.47657694676
21
-0.105654565435
31
310.0
0
LINE
8
0
10
2.47657694676
20
-0.105654565435
30
310.0
11
2.55692539797
21
-0.201410120825
31
310.0
0
LINE
8
0
10
2.47657694676
20
-0.105654565435
30
335.0
11
2.58986542014
21
-0.158481848153
31
0.0
0
LINE
8
0
10
2.58986542014
20
-0.158481848153
30
0.0
11
2.71486542014
21
-0.158481848153
31
25.0
0
LINE
8
0
10
2.71486542014
20
-0.158481848153
30
25.0
11
2.82815389352
21
-0.105654565435
31
25.0
0
LINE
8
0
10
2.71486542014
20
-0.158481848153
30
0.0
11
2.83986542014
21
-0.158481848153
31
335.0
0
LINE
8
0
10
2.83986542014
20
-0.158481848153
30
335.0
11
2.95315389352
21
-0.21130913087
31
335.0
0
LINE
8
0
10
2.83986542014
20
-0.158481848153
30
0.0
11
2.96486542014
21
-0.158481848153
31
0.0
0
LINE
8
0
10
2.58986542014
20
-0.158481848153
30
335.0
11
2.70315389352
21
-0.21130913087
31
0.0
0
LINE
8
0
10
2.70315389352
20
-0.21130913087
30
0.0
11
2.82815389352
21
-0.21130913087
31
0.0
0
LINE
8
0
10
2.70315389352
20
-0.21130913087
30
335.0
11
2.8164423669
21
-0.264136413588
31
310.0
0
LINE
8
0
10
2.8164423669
20
-0.264136413588
30
310.0
11
2.89679081811
21
-0.359891968978
31
310.0
0
LINE
8
0
10
2.8164423669
20
-0.264136413588
30
335.0
11
2.92973084028
21
-0.316963696306
31
310.0
0
LINE
8
0
10
2.92973084028
20
-0.316963696306
30
310.0
11
3.01007929149
21
-0.412719251695
31
335.0
0
LINE
8
0
10
3.01007929149
20
-0.412719251695
30
335.0
11
3.12336776487
21
-0.465546534413
31
335.0
0
LINE
8
0
10
3.01007929149
20
-0.412719251695
30
310.0
11
3.0904277427
21
-0.508474807085
31
285.0
0
LINE
8
0
10
3.0904277427
20
-0.508474807085
30
285.0
11
3.12278012334
21
-0.629215535371
31
285.0
0
LINE
8
0
10
3.0904277427
20
-0.508474807085
30
310.0
11
3.17077619391
21
-0.604230362475
31
310.0
0
LINE
8
0
10
2.92973084028
20
-0.316963696306
30
335.0
11
3.04301931366
21
-0.369790979023
31
0.0
0
LINE
8
0
10
3.04301931366
20
-0.369790979023
30
0.0
11
3.16801931366
21
-0.369790979023
31
0.0
0
LINE
8
0
10
3.04301931366
20
-0.369790979023
30
335.0
11
3.15630778704
21
-0.422618261741
31
310.0
0
LINE
8
0
10
3.15630778704
20
-0.422618261741
30
310.0
11
3.23665623825
21
-0.518373817131
31
310.0
0
LINE
8
0
10
3.15630778704
20
-0.422618261741
30
335.0
11
3.26959626042
21
-0.475445544458
31
335.0
0
LINE
8
0
10
2.25
20
0.0
30
0
11
2.375
21
0.0
31
25.0
0
LINE
8
0
10
2.375
20
0.0
30
25.0
11
2.48828847338
21
0.0528272827176
31
25.0
0
LINE
8
0
10
2.375
20
0.0
30
0
11
2.5
21
0.0
31
335.0
0
LINE
8
0
10
2.5
20
0.0
30
335.0
11
2.61328847338
21
-0.0528272827176
31
335.0
0
LINE
8
0
10
2.5
20
0.0
30
0
11
2.625
21
0.0
31
25.0
0
LINE
8
0
10
2.625
20
0.0
30
25.0
11
2.73828847338
21
0.0528272827176
31
50.0
0
LINE
8
0
10
2.73828847338
20
0.0528272827176
30
50.0
11
2.81863692459
21
0.148582838107
31
50.0
0
LINE
8
0
10
2.73828847338
20
0.0528272827176
30
25.0
11
2.85157694676
21
0.105654565435
31
0.0
0
LINE
8
0
10
2.85157694676
20
0.105654565435
30
0.0
11
2.97657694676
21
0.105654565435
31
0.0
0
LINE
8
0
10
2.85157694676
20
0.105654565435
30
25.0
11
2.96486542014
21
0.158481848153
31
25.0
0
LINE
8
0
10
2.625
20
0.0
30
0
11
2.75
21
0.0
31
25.0
0
LINE
8
0
10
2.75
20
0.0
30
25.0
11
2.86328847338
21
0.0528272827176
31
25.0
0
LINE
8
0
10
2.75
20
0.0
30
0
11
2.875
21
0.0
31
335.0
0
LINE
8
0
10
2.875
20
0.0
30
335.0
11
2.98828847338
21
-0.0528272827176
31
335.0
0
LINE
8
0
10
2.875
20
0.0
30
0
11
3.0
21
0.0
31
335.0
0
LINE
8
0
10
3.0
20
0.0
30
335.0
11
3.11328847338
21
-0.0528272827176
31
0.0
0
LINE
8
0
10
3.11328847338
20
-0.0528272827176
30
0.0
11
3.23828847338
21
-0.0528272827176
31
0.0
0
LINE
8
0
10
3.11328847338
20
-0.0528272827176
30
335.0
11
3.22657694676
21
-0.105654565435
31
310.0
0
LINE
8
0
10
3.22657694676
20
-0.105654565435
30
310.0
11
3.30692539797
21
-0.201410120825
31
310.0
0
LINE
8
0
10
3.22657694676
20
-0.105654565435
30
335.0
11
3.33986542014
21
-0.158481848153
31
335.0
0
LINE
8
0
10
3.0
20
0.0
30
0
11
3.125
21
0.0
31
25.0
0
LINE
8
0
10
3.125
20
0.0
30
25.0
11
3.23828847338
21
0.0528272827176
31
25.0
0
LINE
8
0
10
3.125
20
0.0
30
0
11
3.25
21
0.0
31
335.0
0
LINE
8
0
10
3.25
20
0.0
30
335.0
11
3.36328847338
21
-0.0528272827176
31
335.0
0
LINE
8
0
10
3.25
20
0.0
30
0
11
3.375
21
0.0
31
0
0
ENDSEC
0
EOF
